<svg width="100" height="100" viewBox="0 0 100 100" fill="none" xmlns="http://www.w3.org/2000/svg">
<rect width="100" height="100" rx="50" fill="#008375"/>
<path d="M50 60C55.5228 60 60 55.5228 60 50C60 44.4772 55.5228 40 50 40C44.4772 40 40 44.4772 40 50C40 55.5228 44.4772 60 50 60Z" fill="white" stroke="#008375" stroke-width="2" stroke-linecap="round" stroke-linejoin="round"/>
<path d="M52.3101 46L58.0501 55.94L52.3101 46Z" fill="white"/>
<path d="M52.3101 46L58.0501 55.94" stroke="#008375" stroke-width="2" stroke-linecap="round" stroke-linejoin="round"/>
<path d="M47.6899 46H59.1699H47.6899Z" fill="white"/>
<path d="M47.6899 46H59.1699" stroke="#008375" stroke-width="2" stroke-linecap="round" stroke-linejoin="round"/>
<path d="M45.3799 50.0001L51.1199 40.0601L45.3799 50.0001Z" fill="white"/>
<path d="M45.3799 50.0001L51.1199 40.0601" stroke="#008375" stroke-width="2" stroke-linecap="round" stroke-linejoin="round"/>
<path d="M47.6902 54.0001L41.9502 44.0601L47.6902 54.0001Z" fill="white"/>
<path d="M47.6902 54.0001L41.9502 44.0601" stroke="#008375" stroke-width="2" stroke-linecap="round" stroke-linejoin="round"/>
<path d="M52.3101 54H40.8301H52.3101Z" fill="white"/>
<path d="M52.3101 54H40.8301" stroke="#008375" stroke-width="2" stroke-linecap="round" stroke-linejoin="round"/>
<path d="M54.6199 50L48.8799 59.94L54.6199 50Z" fill="white"/>
<path d="M54.6199 50L48.8799 59.94" stroke="#008375" stroke-width="2" stroke-linecap="round" stroke-linejoin="round"/>
</svg>
