<svg width="100" height="100" viewBox="0 0 100 100" fill="none" xmlns="http://www.w3.org/2000/svg">
<rect width="100" height="100" rx="50" fill="#008375"/>
<path d="M50 57V60" stroke="white" stroke-width="2" stroke-linecap="round" stroke-linejoin="round"/>
<path d="M57 48V50C57 51.8565 56.2625 53.637 54.9497 54.9497C53.637 56.2625 51.8565 57 50 57C48.1435 57 46.363 56.2625 45.0503 54.9497C43.7375 53.637 43 51.8565 43 50V48" stroke="white" stroke-width="2" stroke-linecap="round" stroke-linejoin="round"/>
<path d="M53 43C53 41.3431 51.6569 40 50 40C48.3431 40 47 41.3431 47 43V50C47 51.6569 48.3431 53 50 53C51.6569 53 53 51.6569 53 50V43Z" fill="#D9D9D9" stroke="white" stroke-width="2" stroke-linecap="round" stroke-linejoin="round"/>
</svg>
